<svg width="256" height="256" viewBox="0 0 256 256" fill="none" xmlns="http://www.w3.org/2000/svg">
<rect width="256" height="256" rx="26" fill="#808080"/>
<path d="M90.0597 186V69.6364H130.741C138.848 69.6364 145.533 71.0379 150.798 73.8409C156.063 76.6061 159.984 80.3371 162.56 85.0341C165.135 89.6932 166.423 94.8636 166.423 100.545C166.423 105.545 165.533 109.674 163.753 112.932C162.01 116.189 159.7 118.765 156.821 120.659C153.98 122.553 150.893 123.955 147.56 124.864V126C151.12 126.227 154.7 127.477 158.298 129.75C161.897 132.023 164.908 135.28 167.332 139.523C169.757 143.765 170.969 148.955 170.969 155.091C170.969 160.924 169.643 166.17 166.991 170.83C164.34 175.489 160.154 179.182 154.435 181.909C148.715 184.636 141.272 186 132.105 186H90.0597ZM104.151 173.5H132.105C141.31 173.5 147.844 171.72 151.707 168.159C155.609 164.561 157.56 160.205 157.56 155.091C157.56 151.152 156.556 147.515 154.548 144.182C152.541 140.811 149.681 138.121 145.969 136.114C142.257 134.068 137.863 133.045 132.787 133.045H104.151V173.5ZM104.151 120.773H130.287C134.529 120.773 138.355 119.939 141.764 118.273C145.211 116.606 147.938 114.258 149.946 111.227C151.991 108.197 153.014 104.636 153.014 100.545C153.014 95.4318 151.234 91.0947 147.673 87.5341C144.113 83.9356 138.469 82.1364 130.741 82.1364H104.151V120.773Z" fill="white"/>
</svg>
